<!-- icon666.com - MILLIONS vector ICONS FREE --><svg width="65" height="65" viewBox="0 -45 512 512" xmlns="http://www.w3.org/2000/svg"><path fill="#0837c3" d="m458.546875 232.011719-25.140625-85.070313c-.125-.421875-.277344-.835937-.457031-1.238281-1.488281-3.34375-3.332031-6.464844-5.464844-9.328125h2.335937c5.523438 0 10-4.476562 10-10s-4.476562-10-10-10h-62.226562v-6.105469c0-37.820312-30.765625-68.589843-68.585938-68.589843h-133.894531c-15.882812-25.03125-43.839843-41.679688-75.617187-41.679688-49.347656 0-89.496094 40.148438-89.496094 89.496094 0 31.070312 15.917969 58.488281 40.023438 74.539062v200.09375c0 5.523438 4.480468 10 10 10h45.535156c4.753906 27.128906 28.476562 47.8125 56.949218 47.8125 28.46875 0 52.191407-20.683594 56.945313-47.8125h139.007813c4.753906 27.128906 28.476562 47.8125 56.945312 47.8125 28.472656 0 52.199219-20.683594 56.949219-47.8125h39.644531c5.523438 0 10-4.476562 10-10v-64.242187c0-32.863281-22.824219-60.492188-53.453125-67.875zm-21.429687-1.941407h-69.523438v-93.644531l20.496094.109375h.019531c11.269531.035156 21.53125 6.59375 26.320313 16.753906zm-417.117188-140.574218c0-38.320313 31.175781-69.496094 69.496094-69.496094 38.320312 0 69.496094 31.175781 69.496094 69.496094 0 38.316406-31.175782 69.492187-69.496094 69.492187-38.320313.003907-69.496094-31.171875-69.496094-69.492187zm40.023438 84.503906c9.234374 3.226562 19.152343 4.992188 29.472656 4.992188 49.347656 0 89.496094-40.148438 89.496094-89.496094 0-9.707032-1.5625-19.054688-4.433594-27.816406h114.449218v84.878906c0 5.523437 4.476563 10 10 10 5.519532 0 10-4.476563 10-10v-83.839844c22.007813 4.621094 38.585938 24.1875 38.585938 47.550781v243.863281h-38.585938v-117.125c0-5.523437-4.480468-10-10-10-5.523437 0-10 4.476563-10 10v117.121094h-79.554687c-4.753906-27.125-28.476563-47.8125-56.945313-47.8125s-52.195312 20.6875-56.945312 47.8125h-35.539062zm92.484374 227.941406c-20.851562 0-37.816406-16.960937-37.816406-37.8125 0-20.847656 16.964844-37.8125 37.816406-37.8125 20.851563 0 37.8125 16.964844 37.8125 37.8125 0 20.851563-16.964843 37.8125-37.8125 37.8125zm252.898438 0c-20.847656 0-37.8125-16.960937-37.8125-37.8125 0-20.847656 16.964844-37.8125 37.8125-37.8125 20.851562 0 37.816406 16.964844 37.816406 37.8125 0 20.851563-16.964844 37.8125-37.816406 37.8125zm86.59375-47.8125h-29.644531c-4.75-27.125-28.476563-47.8125-56.945313-47.8125-14.445312 0-27.671875 5.328125-37.816406 14.117188v-70.363282h74.59375c27.464844 0 49.8125 22.347657 49.8125 49.816407zm0 0"></path><path fill="#0837c3" d="m115.570312 108.273438h-27.820312c-5.523438 0-10-4.476563-10-10v-41.332032c0-5.523437 4.476562-10 10-10s10 4.476563 10 10v31.332032h17.820312c5.523438 0 10 4.480468 10 10 0 5.523437-4.476562 10-10 10zm0 0"></path><path fill="#0837c3" d="m299.011719 201.601562c-4.179688 0-8.011719-2.710937-9.417969-6.636718-1.410156-3.9375-.15625-8.4375 3.070312-11.09375 3.277344-2.691406 8.015626-2.996094 11.617188-.765625 3.496094 2.164062 5.34375 6.414062 4.527344 10.445312-.933594 4.609375-5.078125 8.050781-9.796875 8.050781zm0 0"></path></svg>