<!-- icon666.com - MILLIONS vector ICONS FREE --><svg width="65" height="65" version="1.1" id="Layer_1" xmlns="http://www.w3.org/2000/svg" xmlns:xlink="http://www.w3.org/1999/xlink" x="0px" y="0px" viewBox="0 0 512 512" style="enable-background:new 0 0 512 512;" xml:space="preserve"><g><g><path fill="#0837c3" d="M143.571,0L0,143.571l60.067,60.064l5.68-5.679c28.071-28.071,29.866-72.621,5.387-102.801L95.16,71.129 c9.771,7.933,21.287,13.331,33.724,15.739l3.054-15.771c-9.275-1.796-17.902-5.701-25.339-11.407l36.972-36.972l26.447,26.449 l11.359-11.358L143.571,0z M59.695,180.546l-36.977-36.975l36.978-36.978C76.344,128.328,76.345,158.811,59.695,180.546z"></path></g></g><g><g><rect x="273.059" y="148.048" transform="matrix(0.9485 -0.3169 0.3169 0.9485 -34.8022 96.8887)" width="14.76" height="14.76"></rect></g></g><g><g><path fill="#0837c3" d="M333.671,2.374l-192.585,64.35l43.542,129.142l15.222-5.132l-16.531-49.029c32.843-15.026,50.884-51.266,43.049-86.541 l32.24-10.773c12.632,27.807,40.442,45.064,70.054,45.064c5.486,0,11.033-0.608,16.557-1.834l36.201,108.334l15.237-5.091 L333.671,2.374z M178.149,126.37l-16.695-49.515l49.56-16.56C216.193,87.121,202.656,114.321,178.149,126.37z M273.953,39.264 L323.527,22.7l16.567,49.577C313.218,77.463,285.965,63.863,273.953,39.264z"></path></g></g><g><g><path fill="#0837c3" d="M290.499,172.203c-9.711,3.245-18.465,8.627-25.317,15.562l11.429,11.288c5.087-5.15,11.649-9.167,18.979-11.616 c17.599-5.882,36.152-1.494,44.113,10.432l13.36-8.919C340.962,170.824,315.235,163.937,290.499,172.203z"></path></g></g><g><g><rect x="321.92" y="249.635" width="16.063" height="16.063"></rect></g></g><g><g><rect x="193.413" y="249.635" width="16.063" height="16.063"></rect></g></g><g><g><rect x="161.287" y="249.635" width="16.063" height="16.063"></rect></g></g><g><g><rect x="97.033" y="249.635" width="16.063" height="16.063"></rect></g></g><g><g><rect x="289.794" y="249.635" width="16.063" height="16.063"></rect></g></g><g><g><rect x="129.16" y="249.635" width="16.063" height="16.063"></rect></g></g><g><g><rect x="257.667" y="249.635" width="16.063" height="16.063"></rect></g></g><g><g><rect x="418.3" y="249.635" width="16.063" height="16.063"></rect></g></g><g><g><rect x="354.047" y="249.635" width="16.063" height="16.063"></rect></g></g><g><g><rect x="386.174" y="249.635" width="16.063" height="16.063"></rect></g></g><g><g><rect x="225.54" y="249.635" width="16.063" height="16.063"></rect></g></g><g><g><rect x="97.033" y="463.813" width="16.063" height="16.063"></rect></g></g><g><g><rect x="418.3" y="463.813" width="16.063" height="16.063"></rect></g></g><g><g><rect x="386.174" y="463.813" width="16.063" height="16.063"></rect></g></g><g><g><rect x="354.047" y="463.813" width="16.063" height="16.063"></rect></g></g><g><g><rect x="289.794" y="463.813" width="16.063" height="16.063"></rect></g></g><g><g><rect x="321.92" y="463.813" width="16.063" height="16.063"></rect></g></g><g><g><rect x="129.16" y="463.813" width="16.063" height="16.063"></rect></g></g><g><g><rect x="257.667" y="463.813" width="16.063" height="16.063"></rect></g></g><g><g><rect x="193.413" y="463.813" width="16.063" height="16.063"></rect></g></g><g><g><rect x="161.287" y="463.813" width="16.063" height="16.063"></rect></g></g><g><g><rect x="225.54" y="463.813" width="16.063" height="16.063"></rect></g></g><g><g><path fill="#0837c3" d="M458.456,303.176v-85.671H56.872V512h401.584v-80.317h32.127V303.176H458.456z M442.392,495.937H72.935v-16.063h8.032 V463.81h-8.032V265.695h8.032v-16.063h-8.032v-16.063h369.457v69.608h-85.671c-35.429,0-64.253,28.824-64.253,64.253 c0,35.429,28.824,64.253,64.253,64.253h85.671V495.937z M474.519,415.62H356.721c-26.572,0-48.19-21.618-48.19-48.19 c0-26.572,21.618-48.19,48.19-48.19h117.798V415.62z"></path></g></g><g><g><path d="M445.069,3.327c-36.905,0-66.931,30.026-66.931,66.931c0,36.905,30.026,66.931,66.931,66.931 c36.905,0,66.931-30.026,66.931-66.931C512,33.353,481.974,3.327,445.069,3.327z M445.069,121.125 c-28.048,0-50.867-22.82-50.867-50.867c0-28.048,22.82-50.867,50.867-50.867c28.048,0,50.867,22.82,50.867,50.867 C495.937,98.306,473.117,121.125,445.069,121.125z"></path></g></g><g><g><path fill="#0837c3" d="M466.72,74.688c-0.412-1.271-0.983-2.396-1.716-3.372c-0.732-0.977-1.594-1.825-2.583-2.544 c-0.99-0.719-2.056-1.356-3.2-1.908c-1.144-0.553-2.332-1.041-3.566-1.465c-1.234-0.424-2.467-0.816-3.701-1.176l1.349-13.686 c0.797,0.231,1.549,0.501,2.255,0.81c0.707,0.308,1.369,0.598,1.985,0.867c0.617,0.27,1.182,0.495,1.696,0.675 s0.977,0.27,1.388,0.27c0.617,0,1.15-0.148,1.6-0.443c0.45-0.296,0.893-0.765,1.33-1.407l2.93-4.279 c-1.388-1.311-3.084-2.538-5.089-3.682s-4.395-1.973-7.171-2.487L455,33.265h-4.395c-0.9,0-1.632,0.293-2.198,0.881 c-0.565,0.588-0.887,1.248-0.964,1.979l-0.424,4.349c-2.982,0-5.629,0.497-7.942,1.49c-2.313,0.994-4.26,2.264-5.841,3.811 c-1.581,1.547-2.782,3.288-3.605,5.222c-0.822,1.935-1.234,3.922-1.234,5.958c0,2.76,0.456,5.056,1.369,6.887 c0.912,1.831,2.101,3.34,3.566,4.527c1.465,1.187,3.11,2.128,4.935,2.824c1.825,0.696,3.662,1.302,5.513,1.818l-1.426,14.573 c-1.157-0.308-2.186-0.7-3.084-1.176c-0.9-0.476-1.728-0.945-2.487-1.407c-0.758-0.463-1.459-0.855-2.101-1.176 c-0.644-0.321-1.272-0.482-1.889-0.482c-0.591,0-1.15,0.148-1.677,0.443c-0.527,0.296-0.945,0.662-1.253,1.099l-3.701,5.359 c1.85,1.722,4.119,3.193,6.804,4.414c2.685,1.221,5.507,2.075,8.462,2.564l-0.771,7.942h4.395c0.9,0,1.632-0.289,2.197-0.867 c0.565-0.578,0.887-1.227,0.964-1.947l0.463-4.819c2.981-0.231,5.629-0.867,7.942-1.908s4.265-2.384,5.86-4.029 c1.594-1.645,2.8-3.54,3.624-5.686c0.822-2.145,1.234-4.44,1.234-6.882C467.336,77.406,467.131,75.96,466.72,74.688z M444.899,61.909c-1.568-0.643-2.834-1.433-3.797-2.371s-1.446-2.165-1.446-3.682c0-0.668,0.116-1.304,0.347-1.908 c0.231-0.603,0.598-1.15,1.099-1.638c0.501-0.488,1.157-0.906,1.966-1.253c0.81-0.347,1.806-0.61,2.988-0.79L444.899,61.909z M449.64,87.816l1.234-12.722c1.542,0.591,2.782,1.324,3.72,2.197s1.407,2.043,1.407,3.508 C456.001,84.732,453.881,87.071,449.64,87.816z"></path></g></g><g><g><path fill="#0837c3" d="M354.044,335.303c-16.239,0-29.449,13.211-29.449,29.449s13.211,29.449,29.449,29.449c16.239,0,29.45-13.211,29.45-29.449 S370.283,335.303,354.044,335.303z M354.044,378.139c-7.382,0-13.386-6.004-13.386-13.386s6.004-13.386,13.386-13.386 s13.386,6.004,13.386,13.386S361.425,378.139,354.044,378.139z"></path></g></g></svg>