<!-- icon666.com - MILLIONS vector ICONS FREE --><svg width="65" height="65" viewBox="0 0 512.00408 512" xmlns="http://www.w3.org/2000/svg"><path fill="#0837c3" d="m106.011719 286.097656c-9.050781 0-16.382813-7.332031-16.382813-16.382812v-253.332032c0-9.050781 7.332032-16.37890575 16.382813-16.37890575h389.601562c9.050781 0 16.382813 7.32812475 16.382813 16.37890575 0 9.054688-7.332032 16.382813-16.382813 16.382813h-373.21875v236.957031c0 9.042969-7.328125 16.375-16.382812 16.375zm0 0"></path><path fill="#0837c3" d="m495.621094 511.992188h-263.152344c-9.050781 0-16.382812-7.328126-16.382812-16.382813 0-9.050781 7.339843-16.371094 16.382812-16.371094h246.769531v-408.460937c0-9.050782 7.332031-16.382813 16.382813-16.382813 9.050781 0 16.382812 7.332031 16.382812 16.382813v424.84375c-.007812 9.042968-7.339844 16.371094-16.382812 16.371094zm0 0"></path><path fill="#0837c3" d="m319.378906 153.160156h-161.847656c-9.054688 0-16.382812-7.328125-16.382812-16.382812 0-9.050782 7.328124-16.382813 16.382812-16.382813h161.847656c9.050782 0 16.382813 7.332031 16.382813 16.382813 0 9.054687-7.332031 16.382812-16.382813 16.382812zm0 0"></path><path fill="#0837c3" d="m319.378906 273.980469h-161.847656c-9.054688 0-16.382812-7.328125-16.382812-16.382813 0-9.050781 7.328124-16.382812 16.382812-16.382812h161.847656c9.050782 0 16.382813 7.332031 16.382813 16.382812 0 9.054688-7.332031 16.382813-16.382813 16.382813zm0 0"></path><path fill="#0837c3" d="m319.378906 394.828125h-57.3125c-9.054687 0-16.382812-7.328125-16.382812-16.382813 0-9.050781 7.328125-16.382812 16.382812-16.382812h57.3125c9.050782 0 16.382813 7.332031 16.382813 16.382812 0 9.054688-7.332031 16.382813-16.382813 16.382813zm0 0"></path><path fill="#0837c3" d="m388.8125 177.125c-4.195312 0-8.386719-1.597656-11.589844-4.792969l-25.167968-25.167969c-6.398438-6.410156-6.398438-16.773437 0-23.171874 6.398437-6.398438 16.78125-6.398438 23.171874 0l13.578126 13.585937 43.503906-43.511719c6.398437-6.398437 16.78125-6.398437 23.171875 0 6.398437 6.40625 6.398437 16.773438 0 23.171875l-55.09375 55.09375c-3.1875 3.195313-7.382813 4.792969-11.574219 4.792969zm0 0"></path><path fill="#0837c3" d="m388.8125 300.082031c-4.347656 0-8.507812-1.722656-11.589844-4.800781l-25.167968-25.175781c-6.398438-6.398438-6.398438-16.773438.007812-23.164063 6.398438-6.398437 16.773438-6.40625 23.164062.007813l13.578126 13.578125 43.503906-43.496094c6.398437-6.398438 16.78125-6.398438 23.171875 0 6.398437 6.410156 6.398437 16.785156 0 23.171875l-55.09375 55.085937c-3.0625 3.0625-7.234375 4.792969-11.574219 4.792969zm0 0"></path><path fill="#0837c3" d="m388.8125 423.03125c-4.347656 0-8.507812-1.71875-11.589844-4.800781l-25.167968-25.175781c-6.398438-6.398438-6.398438-16.773438.007812-23.164063 6.398438-6.398437 16.773438-6.40625 23.164062.007813l13.578126 13.578124 43.503906-43.492187c6.398437-6.398437 16.78125-6.398437 23.171875 0 6.398437 6.40625 6.398437 16.78125 0 23.171875l-55.09375 55.085938c-3.0625 3.070312-7.234375 4.789062-11.574219 4.789062zm0 0"></path><path fill="#0837c3" d="m215.890625 406.234375c-7.445313 0-14.183594-5.113281-15.9375-12.683594l-15.0625-64.742187h-137.460937l-15.085938 64.75c-2.042969 8.8125-10.871094 14.34375-19.675781 12.238281-8.8125-2.046875-14.289063-10.859375-12.238281-19.671875l18.042968-77.417969c1.722656-7.417969 8.332032-12.664062 15.957032-12.664062h163.472656c7.613281 0 14.234375 5.246093 15.957031 12.675781l18.003906 77.414062c2.050781 8.8125-3.433593 17.617188-12.246093 19.664063-1.25.304687-2.492188.4375-3.726563.4375zm0 0"></path><path fill="#0837c3" d="m166.003906 406.234375c-8.207031 0-15.289062-6.152344-16.257812-14.503906l-8.996094-77.414063c-1.039062-8.988281 5.394531-17.117187 14.382812-18.164062 9.0625-1.011719 17.128907 5.402344 18.167969 14.386718l9 77.414063c1.039063 8.988281-5.398437 17.117187-14.386719 18.164063-.640624.082031-1.289062.117187-1.910156.117187zm0 0"></path><path fill="#0837c3" d="m116.15625 406.222656c-9.050781 0-16.382812-7.328125-16.382812-16.382812v-77.414063c0-9.050781 7.332031-16.382812 16.382812-16.382812s16.382812 7.332031 16.382812 16.382812v77.414063c0 9.054687-7.339843 16.382812-16.382812 16.382812zm0 0"></path><path fill="#0837c3" d="m66.289062 406.234375c-.628906 0-1.277343-.046875-1.917968-.117187-8.988282-1.046876-15.421875-9.183594-14.375-18.175782l9.035156-77.414062c1.054688-8.988282 9.238281-15.34375 18.175781-14.375 8.988281 1.046875 15.421875 9.183594 14.375 18.175781l-9.035156 77.414063c-.984375 8.351562-8.058594 14.492187-16.257813 14.492187zm0 0"></path><path fill="#0837c3" d="m190.554688 511.992188h-150.488282c-9.054687 0-16.382812-7.328126-16.382812-16.382813v-72.976563c0-9.050781 7.328125-16.382812 16.382812-16.382812 9.050782 0 16.382813 7.332031 16.382813 16.382812v56.605469h117.730469v-56.597656c0-9.050781 7.328124-16.378906 16.382812-16.378906 9.050781 0 16.382812 7.328125 16.382812 16.378906v72.980469c-.019531 9.042968-7.347656 16.371094-16.390624 16.371094zm0 0"></path></svg>