<!-- icon666.com - MILLIONS vector ICONS FREE --><svg width="35" height="35" id="Capa_1" enable-background="new 0 0 512 512" viewBox="0 0 512 512" xmlns="http://www.w3.org/2000/svg"><path d="m151 347.45v73.54h32.763c-1.681 4.725-2.763 9.726-2.763 15.01 0 24.814 20.186 45 45 45s45-20.186 45-45c0-5.284-1.082-10.285-2.763-15.01h95.526c-1.681 4.725-2.763 9.726-2.763 15.01 0 24.814 20.186 45 45 45s45-20.186 45-45c0-5.284-1.082-10.285-2.763-15h33.763v-30h-301v-30h299.008l31.992-240h-375.707l-18.003-90h-118.29v30h93.71zm210-166.45h30v120h-30zm-60 0h30v120h-30zm-60 0h30v120h-30z"></path></svg>