<!-- icon666.com - MILLIONS vector ICONS FREE --><svg id="Layer_1" viewBox="0 0 512 512" xmlns="http://www.w3.org/2000/svg"><path d="m256 23.311c-128.306 0-232.689 104.384-232.689 232.688 0 128.306 104.384 232.69 232.689 232.69s232.689-104.385 232.689-232.69-104.383-232.688-232.689-232.688zm0 450.367c-120.026 0-217.678-97.65-217.678-217.679 0-120.027 97.651-217.676 217.678-217.676 120.028 0 217.678 97.649 217.678 217.676 0 120.028-97.65 217.679-217.678 217.679zm75.854-293.531c2.931 2.931 2.931 7.683 0 10.614l-58.987 58.988c.72 1.946 1.115 4.052 1.115 6.251 0 9.931-8.05 17.982-17.982 17.982-9.931 0-17.98-8.052-17.98-17.982 0-.575.027-1.145.08-1.706l-51.049-29.472c-3.579-2.057-4.813-6.625-2.757-10.204 2.057-3.579 6.625-4.813 10.204-2.756l51.073 29.486c2.94-2.098 6.542-3.332 10.429-3.332 2.199 0 4.305.395 6.253 1.118l58.987-58.987c2.931-2.931 7.683-2.931 10.614 0zm-75.854-119.61c-107.777 0-195.461 87.685-195.461 195.462 0 107.779 87.684 195.464 195.461 195.464 107.779 0 195.463-87.685 195.463-195.464 0-107.777-87.684-195.462-195.463-195.462zm0 375.914c-99.5 0-180.449-80.95-180.449-180.452 0-99.5 80.949-180.45 180.449-180.45 99.502 0 180.451 80.95 180.451 180.45 0 99.502-80.949 180.452-180.451 180.452zm-7.506-318.358v-26.865c0-4.146 3.36-7.506 7.506-7.506s7.506 3.361 7.506 7.506v26.865c0 4.146-3.36 7.506-7.506 7.506s-7.506-3.36-7.506-7.506zm179.785 137.907c0 4.146-3.361 7.506-7.506 7.506h-26.867c-4.145 0-7.506-3.359-7.506-7.506 0-4.146 3.361-7.506 7.506-7.506h26.867c4.145 0 7.506 3.36 7.506 7.506zm-164.773 137.906v26.867c0 4.146-3.36 7.506-7.506 7.506s-7.506-3.36-7.506-7.506v-26.867c0-4.145 3.36-7.506 7.506-7.506s7.506 3.362 7.506 7.506zm-137.906-137.906c0 4.146-3.361 7.506-7.506 7.506h-26.865c-4.146 0-7.506-3.359-7.506-7.506 0-4.146 3.36-7.506 7.506-7.506h26.865c4.144 0 7.506 3.36 7.506 7.506z"></path></svg>