<!-- icon666.com - MILLIONS vector ICONS FREE --><svg version="1.1" id="Capa_1" xmlns="http://www.w3.org/2000/svg" xmlns:xlink="http://www.w3.org/1999/xlink" x="0px" y="0px" viewBox="0 0 177.706 177.706" style="enable-background:new 0 0 177.706 177.706;" xml:space="preserve"><g><g><path d="M142.459,0H60.191C42.539,0,37.564,3.446,36.815,18.706h6.192c0.405-11.399,3.005-12.47,17.184-12.47h82.268 c15.972,0,17.263,1.291,17.263,17.271v102.818h6.235V23.507C165.957,4.104,161.841,0,142.459,0z"></path><polygon points="147.251,145.025 162.091,130.186 147.251,130.186 "></polygon><path d="M117.518,24.941H35.25c-19.379,0-23.501,4.104-23.501,23.507v105.753c0,19.382,4.117,23.505,23.501,23.505h79.327v-6.236 H35.25c-15.975,0-17.266-1.29-17.266-17.269V48.448c0-15.975,1.291-17.272,17.266-17.272h82.267 c15.973,0,17.263,1.291,17.263,17.272v102.818h6.235V48.448C141.016,29.045,136.899,24.941,117.518,24.941z"></path><polygon points="118.443,173.833 137.149,155.127 118.443,155.127 "></polygon><path d="M56.864,131.842v-7.63c8.598-1.491,13.311-7.179,13.311-13.834c0-6.734-3.59-10.845-12.489-13.986 c-6.36-2.394-8.973-3.965-8.973-6.431c0-2.095,1.571-4.189,6.437-4.189c5.379,0,8.82,1.724,10.766,2.546l2.17-8.449 c-2.469-1.19-5.836-2.238-10.842-2.469v-6.585H49.91v7.109c-7.998,1.571-12.638,6.729-12.638,13.311 c0,7.252,5.456,10.991,13.463,13.683c5.529,1.869,7.925,3.665,7.925,6.509c0,2.99-2.92,4.635-7.179,4.635 c-4.856,0-9.271-1.571-12.413-3.289l-2.247,8.75c2.844,1.645,7.703,2.984,12.714,3.216v7.105H56.864z"></path><rect x="79.82" y="82.368" width="43.129" height="6.235"></rect><rect x="79.82" y="98.212" width="43.129" height="6.235"></rect><rect x="79.82" y="114.056" width="43.129" height="6.235"></rect></g></g></svg>