<!-- icon666.com - MILLIONS vector ICONS FREE --><svg width="20" height="20" version="1.1" id="Layer_1" xmlns="http://www.w3.org/2000/svg" xmlns:xlink="http://www.w3.org/1999/xlink" x="0px" y="0px" viewBox="0 0 512 512" style="enable-background:new 0 0 512 512;" xml:space="preserve"><g><g><path d="M405.333,320.479v-23.698V106.667c0-23.531-19.146-42.667-42.667-42.667h-320C19.146,64,0,83.135,0,106.667V320 c0,23.531,19.146,42.667,42.667,42.667h256c0,4.885,1.583,9.156,4.583,12.354c11.313,11.906,30.771,30.313,47.938,46.552 c8.583,8.104,16.438,15.531,22.104,21.052c3.563,3.469,8.188,5.375,13.021,5.375c10.479,0,19.021-8.729,19.021-19.448v-23.021 c55.063,2.021,85.333,19.5,85.333,31.802c0,5.896,4.771,10.667,10.667,10.667c5.896,0,10.667-4.771,10.667-10.667 C512,376.229,465.063,325.885,405.333,320.479z M42.667,85.333h320c0.443,0,0.814,0.225,1.25,0.253L211.688,210.604 c-5.583,3.625-13.417,2.938-17.083,0.688L41.424,85.585C41.858,85.559,42.227,85.333,42.667,85.333z M42.667,341.333 c-11.771,0-21.333-9.573-21.333-21.333V106.667c0-3.021,0.668-5.875,1.805-8.482l158.883,130.294 c6.208,4.052,13.354,6.188,20.646,6.188c7.25,0,14.396-2.125,21.646-6.885L382.194,98.184c1.138,2.608,1.806,5.461,1.806,8.483 v171.125c-3.956,0.518-7.736,2.022-10.708,4.917c-5.667,5.521-13.521,12.948-22.104,21.052 c-13.311,12.592-27.891,26.401-39.102,37.573H42.667z M394.667,384c-5.896,0-10.667,4.771-10.667,10.667v28.635 c-5.146-4.938-11.438-10.885-18.146-17.229c-15.875-15.021-33.75-31.906-44.875-43.406c11.146-11.521,29-28.396,44.875-43.406 c7.188-6.792,13.875-13.115,18.146-17.875v29.281c0,5.896,4.771,10.667,10.667,10.667c40.063,0,74.479,24.667,88.833,59.615 C462.666,390.292,431.646,384,394.667,384z"></path></g></g></svg>