<!-- icon666.com - MILLIONS vector ICONS FREE --><svg id="Layer_1" enable-background="new 0 0 512.004 512.004" viewBox="0 0 512.004 512.004" xmlns="http://www.w3.org/2000/svg"><g><path d="m14.954 142.467h482c8.284 0 15-6.716 15-15s-6.716-15-15-15h-17.133v-97.467c0-8.284-6.716-15-15-15h-96.4c-8.284 0-15 6.716-15 15v97.467h-34.267v-97.467c0-8.284-6.716-15-15-15h-96.4c-8.284 0-15 6.716-15 15v97.467h-34.267v-97.467c0-8.284-6.716-15-15-15h-96.4c-8.284 0-15 6.716-15 15v97.467h-17.133c-19.876.735-19.869 29.268 0 30zm368.467-112.467h66.4v82.467h-66.4zm-160.667 0h66.4v82.467h-66.4zm-160.666 0h66.4v82.467h-66.4z"></path><path d="m511.954 304.2c0-8.284-6.716-15-15-15h-17.133v-97.467c0-8.284-6.716-15-15-15h-96.4c-8.284 0-15 6.716-15 15v89.473c-6.15 2.188-12.068 4.868-17.706 7.994h-16.561v-97.467c0-8.284-6.716-15-15-15h-96.4c-8.284 0-15 6.716-15 15v97.467h-34.267v-97.467c0-8.284-6.716-15-15-15h-96.4c-8.284 0-15 6.716-15 15v97.467h-17.133c-19.858.727-19.887 29.261 0 30h285.288c-61.896 75.706-5.768 193.681 92.899 192.799 98.655.885 154.8-117.112 92.895-192.799h10.917c8.286 0 15.001-6.716 15.001-15zm-383.466-15h-66.4v-82.467h66.4zm160.667 0h-66.4v-82.467h66.4zm94.266-82.467h66.4v82.024c-20.131-10.98-43.441-15.892-66.4-13.993zm9.719 275.267c-48.973 0-88.815-39.842-88.815-88.814 4.465-117.664 173.182-117.632 177.63.001-.001 48.971-39.842 88.813-88.815 88.813z"></path><path d="m413.678 361.812-30.919 30.92-10.16-10.155c-5.859-5.857-15.357-5.856-21.213.004-5.856 5.859-5.854 15.356.004 21.213 0 0 20.766 20.758 20.766 20.758 5.858 5.856 15.354 5.855 21.211-.002 0 0 41.524-41.524 41.524-41.524 5.858-5.857 5.858-15.355 0-21.213s-15.356-5.858-21.213-.001z"></path></g></svg>