<!-- icon666.com - MILLIONS vector ICONS FREE --><svg xmlns="http://www.w3.org/2000/svg" xmlns:xlink="http://www.w3.org/1999/xlink" version="1.1" id="Layer_1" x="0px" y="0px" viewBox="0 0 512.004 512.004" style="enable-background:new 0 0 512.004 512.004;" xml:space="preserve"><g><g><g><path d="M502.004,47.085h-37.566l-43.961-19.09c-1.257-0.546-2.613-0.827-3.983-0.827h-134.09 c-10.383,0-19.765,4.369-26.402,11.366c-6.638-6.997-16.02-11.366-26.403-11.366H95.51c-1.371,0-2.726,0.281-3.983,0.827 l-43.96,19.09H10c-5.523,0-10,4.478-10,10V447.13c0,5.523,4.477,10,10,10h193.972c11.586,17.23,31.008,27.706,52.03,27.706 c21.022,0,40.444-10.477,52.03-27.706h193.972c5.522,0,10-4.477,10-10V57.085C512.004,51.563,507.527,47.085,502.004,47.085z M492.004,437.13H302.404c-3.676,0-7.055,2.017-8.801,5.251c-7.474,13.851-21.882,22.455-37.601,22.455 c-15.719,0-30.127-8.604-37.601-22.455c-1.746-3.234-5.125-5.251-8.801-5.251H20V67.085h19.744v340.953c0,5.523,4.477,10,10,10 h412.517c5.522,0,10-4.477,10-10c0-5.522-4.478-10-10-10H59.744V63.602l37.844-16.434H229.6c9.044,0,16.403,7.358,16.403,16.403 c0,5.522,4.477,10,10,10c5.522,0,10-4.478,10-10c0-9.045,7.358-16.403,16.402-16.403h132.013l37.844,16.434v210.95 c0,5.523,4.477,10,10,10c5.522,0,10-4.477,10-10V67.085h19.743V437.13z"></path></g><g><g><path d="M462.262,343.531c-0.65,0-1.31-0.06-1.96-0.189c-0.63-0.13-1.26-0.32-1.87-0.57c-0.6-0.25-1.18-0.559-1.72-0.93 c-0.55-0.36-1.061-0.78-1.521-1.24c-1.859-1.859-2.93-4.439-2.93-7.07c0-0.649,0.06-1.31,0.19-1.949 c0.13-0.641,0.319-1.271,0.569-1.87c0.25-0.61,0.561-1.191,0.92-1.73c0.37-0.55,0.79-1.06,1.25-1.52 c0.46-0.46,0.971-0.88,1.521-1.24c0.54-0.36,1.12-0.67,1.72-0.92c0.61-0.25,1.24-0.44,1.87-0.57c1.29-0.26,2.62-0.26,3.91,0 c0.64,0.13,1.269,0.32,1.87,0.57c0.609,0.25,1.189,0.56,1.729,0.92c0.55,0.36,1.061,0.78,1.521,1.24 c0.46,0.46,0.88,0.97,1.239,1.52c0.36,0.54,0.671,1.12,0.921,1.73c0.25,0.6,0.44,1.229,0.569,1.87c0.13,0.64,0.2,1.3,0.2,1.949 c0,0.65-0.07,1.311-0.2,1.95c-0.13,0.641-0.319,1.27-0.569,1.88c-0.25,0.601-0.56,1.181-0.921,1.721 c-0.359,0.55-0.779,1.06-1.239,1.52C467.472,342.462,464.892,343.531,462.262,343.531z"></path></g></g></g><g><g><g><path d="M397.429,249.464c-5.523,0-10-4.478-10-10V125.032H124.576v104.433h208.692c5.523,0,10,4.478,10,10 c0,5.522-4.477,10-10,10H114.576c-5.523,0-10-4.478-10-10V115.032c0-5.522,4.477-10,10-10h282.854c5.522,0,10,4.478,10,10 v124.433C407.429,244.987,402.952,249.464,397.429,249.464z"></path></g></g><g><g><path d="M189.908,181.831h-18.534v25.24c0,2.98-3.633,4.471-7.265,4.471c-3.633,0-7.266-1.49-7.266-4.471v-59.236 c0-3.074,3.633-4.378,7.266-4.378c3.632,0,7.265,1.304,7.265,4.378v22.819h18.534v-22.819c0-3.074,3.633-4.378,7.266-4.378 c3.632,0,7.265,1.304,7.265,4.378v59.236c0,2.98-3.633,4.471-7.265,4.471c-3.633,0-7.266-1.49-7.266-4.471V181.831z"></path></g><g><path d="M229.029,171.865H243c2.794,0,4.378,2.701,4.378,5.682c0,2.515-1.305,5.495-4.378,5.495h-13.971v15.834h24.961 c2.795,0,4.377,2.98,4.377,6.427c0,2.981-1.304,6.24-4.377,6.24h-33.157c-3.167,0-6.334-1.49-6.334-4.471v-59.143 c0-2.98,3.167-4.471,6.334-4.471h33.157c3.074,0,4.377,3.26,4.377,6.24c0,3.446-1.582,6.427-4.377,6.427h-24.961V171.865z"></path></g><g><path d="M271.036,211.542c-3.167,0-6.334-1.49-6.334-4.471v-59.236c0-3.074,3.633-4.378,7.265-4.378 c3.633,0,7.266,1.304,7.266,4.378v51.04h21.235c2.794,0,4.191,3.167,4.191,6.334c0,3.166-1.397,6.333-4.191,6.333H271.036z"></path></g><g><path d="M310.528,147.835c0-2.329,2.143-4.378,5.402-4.378h19.28c12.294,0,21.98,5.774,21.98,21.422v0.466 c0,15.647-10.059,21.608-22.912,21.608h-9.221v20.118c0,2.98-3.633,4.471-7.266,4.471c-3.632,0-7.265-1.49-7.265-4.471V147.835z M325.058,156.124v19.652h9.221c5.216,0,8.383-2.98,8.383-9.314v-1.024c0-6.334-3.167-9.314-8.383-9.314H325.058z"></path></g></g></g><g><g><path d="M195.002,293.534h-80.427c-5.523,0-10-4.478-10-10c0-5.522,4.477-10,10-10h80.427c5.523,0,10,4.478,10,10 C205.002,289.056,200.525,293.534,195.002,293.534z"></path></g><g><path d="M195.002,343.534h-80.427c-5.523,0-10-4.478-10-10c0-5.522,4.477-10,10-10h80.427c5.523,0,10,4.478,10,10 C205.002,339.056,200.525,343.534,195.002,343.534z"></path></g></g><g><g><path d="M397.429,293.534h-80.427c-5.522,0-10-4.478-10-10c0-5.522,4.478-10,10-10h80.427c5.522,0,10,4.478,10,10 C407.429,289.056,402.952,293.534,397.429,293.534z"></path></g><g><path d="M397.429,343.534h-80.427c-5.522,0-10-4.478-10-10c0-5.522,4.478-10,10-10h80.427c5.522,0,10,4.478,10,10 C407.429,339.056,402.952,343.534,397.429,343.534z"></path></g></g></g></svg>