<!-- icon666.com - MILLIONS vector ICONS FREE --><svg width="30" height="30" version="1.1" id="Capa_1" xmlns="http://www.w3.org/2000/svg" xmlns:xlink="http://www.w3.org/1999/xlink" x="0px" y="0px" viewBox="0 0 512 512" style="enable-background:new 0 0 512 512;" xml:space="preserve"><g><g><path d="M270.24,142.38c-16.674-16.73-43.383-17.904-61.46-2.7l-102.76,87.14c-5.476,4.645-6.15,12.849-1.505,18.325 c4.645,5.476,12.849,6.15,18.325,1.505l102.72-87.14c7.691-6.47,19.056-5.97,26.15,1.15c7.475,7.56,7.406,19.748-0.153,27.223 c-0.15,0.148-0.302,0.294-0.457,0.437l-65.19,60.36c-4.165,3.867-5.335,9.99-2.89,15.12c9.688,20.351,11.584,43.546,5.33,65.2 c-1.991,6.904,1.991,14.114,8.895,16.105s14.114-1.991,16.105-8.895c7.104-24.556,6.052-50.753-3-74.66l58.48-54.15 c9.022-8.308,14.25-19.947,14.47-32.21C283.612,162.928,278.893,151.073,270.24,142.38z"></path></g></g><g><g><path d="M360.02,261.59h-104c-7.18,0-13,5.82-13,13s5.82,13,13,13h104c7.18,0,13-5.82,13-13S367.2,261.59,360.02,261.59z"></path></g></g><g><g><path d="M468.81,269.42c-8.1-6.3-19-11.07-32.38-14.19l-0.46-0.11c-30.32-6.93-30.32-20.06-30.32-24.38 c0-16.47,14.21-23.99,27.42-23.99c11.058-0.014,21.039,6.626,25.3,16.83c2.778,6.627,10.403,9.748,17.03,6.97 c6.627-2.778,9.748-10.403,6.97-17.03c-6.491-15.538-19.942-27.094-36.28-31.17v-11.51c0-7.18-5.82-13-13-13s-13,5.82-13,13v11.29 c-23.76,5.16-40.42,24.36-40.42,48.67c0,14.19,6.1,26.44,17.65,35.43c8.1,6.3,19,11.07,32.39,14.19l0.45,0.11 c30.32,6.93,30.32,20.06,30.32,24.38c0,16.52-14.21,24-27.42,24c-11.058,0.014-21.039-6.626-25.3-16.83 c-2.778-6.627-10.403-9.748-17.03-6.97c-6.627,2.778-9.748,10.403-6.97,17.03c6.497,15.545,19.961,27.103,36.31,31.17v11.5 c0,7.18,5.82,13,13,13s13-5.82,13-13v-11.3c23.74-5.17,40.39-24.37,40.39-48.66C486.46,290.66,480.36,278.41,468.81,269.42z"></path></g></g><g><g><path d="M450.54,0h-299c-17.89,0.022-32.388,14.52-32.41,32.41v64.45l-39.29,39.25c-20.107,19.999-31.378,47.211-31.3,75.57 v194.63h-10c-7.18,0-13,5.82-13,13V499c0,7.18,5.82,13,13,13c0.013,0,0.027,0,0.04,0c7.18,0,13-5.82,13-13v-66.69h223.77V499 c0,7.18,5.82,13,13,13s13-5.82,13-13v-79.69c0-7.18-5.82-13-13-13h-20.13V392.5c24.151-17.513,39.983-44.235,43.74-73.83 c0.914-7.122-4.118-13.636-11.24-14.55c-7.122-0.914-13.636,4.118-14.55,11.24c-3.103,24.426-17.003,46.17-37.87,59.24 c-3.782,2.378-6.078,6.532-6.08,11v20.7H74.54V211.68c-0.057-21.459,8.474-42.049,23.69-57.18l20.87-20.87v27.69 c0,7.18,5.82,13,13,13s13-5.82,13-13V93.78h311.85V145c0,7.18,5.82,13,13,13s13-5.82,13-13V32.41 C482.928,14.52,468.43,0.022,450.54,0z M456.92,67.78H145.1V32.41c0.005-3.538,2.872-6.404,6.41-6.41h299 c3.538,0.005,6.405,2.872,6.41,6.41V67.78z"></path></g></g><g><g><path d="M234.85,454.65h-7.7c-7.18,0-13,5.82-13,13s5.82,13,13,13h7.7c7.18,0,13-5.82,13-13 C247.85,460.47,242.03,454.65,234.85,454.65z"></path></g></g></svg>