<!-- icon666.com - MILLIONS vector ICONS FREE --><svg version="1.1" id="Capa_1" xmlns="http://www.w3.org/2000/svg" xmlns:xlink="http://www.w3.org/1999/xlink" x="0px" y="0px" viewBox="0 0 512.096 512.096" style="enable-background:new 0 0 512.096 512.096;" xml:space="preserve"><path d="M504.104,404.53l-95.715-95.715c-10.659-10.659-28.002-10.66-38.661,0l-27.348,27.347 c-10.659,10.659-10.659,28.002,0,38.661l1.18,1.18l-14.475,14.475c-0.212,0.103-0.505,0.215-0.815,0.316 c-39.682-28.807-77.249-60.861-111.687-95.299c-34.506-34.506-66.554-72.064-95.287-111.665c0.093-0.31,0.2-0.611,0.302-0.831 c5.164-5.106,10.671-10.528,14.594-14.365l1.084,1.084c5.329,5.33,12.33,7.994,19.33,7.994c7.001,0,14.001-2.665,19.331-7.994 l27.347-27.347c10.659-10.659,10.659-28.002,0-38.661L107.569,7.994c-10.659-10.659-28.002-10.66-38.661,0L41.56,35.342 c-8.692,8.691-10.293,21.826-4.811,32.158L21.048,83.201c-25.523,25.542-28.21,69.368-5.95,97.747 c93.054,116.66,199.39,222.996,316.104,316.093c12.88,10.102,28.962,15.056,45.074,15.055c19.326,0,38.694-7.128,52.624-21.048 l15.7-15.7c3.996,2.121,8.411,3.184,12.827,3.184c7.001,0,14.001-2.665,19.331-7.994l27.347-27.347 c5.148-5.148,7.984-12.014,7.984-19.331S509.253,409.678,504.104,404.53z M492.791,431.878l-27.347,27.347 c-4.421,4.42-11.613,4.42-16.034,0l-47.861-47.861c-3.124-3.124-8.189-3.124-11.313,0c-3.125,3.124-3.125,8.189,0,11.313 l42.204,42.204l-14.852,14.852c-19.672,19.658-54.709,21.818-76.46,4.759C225.4,392.181,119.916,286.697,27.647,171.022 c-17.1-21.801-14.939-56.839,4.717-76.509l14.854-14.854l8.019,8.019c3.124,3.124,8.189,3.124,11.313,0 c3.125-3.124,3.125-8.189,0-11.313L52.874,62.689c-2.126-2.126-3.297-4.974-3.297-8.017c0-3.043,1.171-5.89,3.297-8.017 l27.348-27.347c4.421-4.42,11.613-4.419,16.034,0l95.715,95.715c4.42,4.421,4.42,11.613,0,16.034l-27.347,27.347 c-4.421,4.421-11.613,4.42-16.034,0l-6.516-6.516c-0.005-0.005-0.01-0.01-0.015-0.015l-48.162-48.162 c-3.124-3.124-8.189-3.124-11.313,0c-3.125,3.124-3.125,8.189,0,11.313l42.295,42.295c-1.439,1.408-3.021,2.96-4.603,4.515 c-5.177,5.089-10.336,10.191-10.336,10.191c-0.038,0.038-0.076,0.076-0.113,0.114c-3.32,3.418-6.991,13.207-3.027,18.947 c0.031,0.045,0.063,0.09,0.095,0.135c29.595,41.017,62.693,79.906,98.374,115.587c35.684,35.684,74.665,68.847,115.858,98.567 c0.05,0.036,0.101,0.072,0.152,0.107c1.671,1.148,3.712,1.614,5.844,1.614c4.976,0,10.441-2.539,12.833-4.863 c0.027-0.027,0.055-0.053,0.082-0.081l14.836-14.836l8.018,8.018c3.124,3.125,8.189,3.124,11.313,0 c3.125-3.124,3.125-8.189,0-11.313l-20.512-20.511c-4.42-4.421-4.42-11.613,0-16.034l27.348-27.347 c4.421-4.42,11.613-4.419,16.034,0l95.715,95.716c2.126,2.126,3.297,4.973,3.297,8.017S494.917,429.751,492.791,431.878z"></path></svg>